<svg xmlns="http://www.w3.org/2000/svg" width="32" height="32" fill="none" viewBox="0 0 32 32">
  <path fill="black" fill-rule="evenodd" d="M13.1381 21.4763C17.7431 21.4763 21.4762 17.7432 21.4762 13.1381C21.4762 8.53311 17.7431 4.8 13.1381 4.8C8.53311 4.8 4.8 8.53311 4.8 13.1381C4.8 17.7432 8.53311 21.4763 13.1381 21.4763ZM13.1381 26.2763C20.3941 26.2763 26.2762 20.3941 26.2762 13.1381C26.2762 5.88214 20.3941 0 13.1381 0C5.88214 0 0 5.88214 0 13.1381C0 20.3941 5.88214 26.2763 13.1381 26.2763Z" clip-rule="evenodd"/>
  <rect width="4.9268" height="14.7804" x="18.0649" y="21.5487" fill="black" rx="1.5" transform="rotate(-45 18.0649 21.5487)"/>
</svg>
